<svg xmlns="http://www.w3.org/2000/svg" viewBox="0 0 218.1 274.45"><path d="M30.81 274.44c-1-.27-2-.57-3-.8C10.9 269.77.11 256.03.05 238.05c-.08-21.43 0-42.86 0-64.3V37.11c0-12.65 4.52-23 14.81-30.48C21.2 1.99 28.41.05 36.23.06h84.13c5.09 0 10.19-.24 15.26.11a10.38 10.38 0 0 1 6.17 2.44q36.83 36.32 73.39 72.86a9.58 9.58 0 0 1 3 7.17c0 51.89 0 103.77-.06 155.66 0 18.68-11.71 32.41-29.83 35.67a3.74 3.74 0 0 0-.92.45Zm99.37-260.22c-1-.06-1.64-.13-2.25-.13H36.32a24.53 24.53 0 0 0-6.34.78c-10.25 2.8-15.84 10.62-15.84 22v200.65c0 14.09 8.78 22.84 22.94 22.84H181.2a26.89 26.89 0 0 0 6.88-.75c10.26-2.73 15.93-10.58 15.93-21.9V90.91c0-.93-.09-1.87-.15-2.92h-3.24c-17.14 0-34.29.08-51.43-.08a22.45 22.45 0 0 1-9-1.82c-7.25-3.41-10-9.69-10-17.48v-50.9Zm61.87 59.72-47.54-48.72a13 13 0 0 0-.19 1.37v43.63c0 2.72 1.11 3.72 4 3.75h15Z"/><path d="M144.1 174.46v-14.33l-13.47 2.8c-11.08 2.31-22.16 4.69-33.27 6.87-1.95.39-2.4 1.14-2.38 3q.1 17.15 0 34.29c0 7.76-2.78 14.23-9.09 19.05-6.85 5.23-16.66 5.68-24.69 1a22 22 0 0 1-10.29-21.44c2.05-13.88 14.21-22 28-18.65.51.12 1 .16 2 .3v-47.2c0-6.82 1.47-8.68 8.11-10q30.67-6.22 61.36-12.41c4.5-.9 7.87 1.67 7.88 6.3 0 23.48.09 47 0 70.46 0 7.9-2.8 14.77-9.64 19.28-7.22 4.77-14.83 4.84-22.24.5a20.85 20.85 0 0 1-10.88-19.31c.19-13.87 12.65-23.72 26.32-21 .64.11 1.32.25 2.28.49Zm-48.94-31.24v12.65l48.89-10.15v-12.65Zm-14 65.09a8.35 8.35 0 0 0-8.58-8.34c-5 0-8.79 3.51-8.82 8.12s3.7 8.23 8.65 8.28 8.75-3.32 8.79-8.06Zm56.6-5a8.06 8.06 0 0 0 8.16-8.11 8.25 8.25 0 0 0-8.07-8 8.07 8.07 0 0 0-8 8.25 7.59 7.59 0 0 0 7.95 7.88Z"/></svg>