<svg xmlns="http://www.w3.org/2000/svg" viewBox="0 0 20 20"><path d="m17.79 9.25 1.26-.73a1 1 0 0 0 .45-1.07 10 10 0 0 0-2.5-4.4 1 1 0 0 0-1.15-.15l-1.26.73a7.4 7.4 0 0 0-1.31-.75V1.42a1 1 0 0 0-.7-.92 9.94 9.94 0 0 0-5.12 0 1 1 0 0 0-.7.92v1.46a7.4 7.4 0 0 0-1.31.75L4.19 2.9A1 1 0 0 0 3 3.05a10 10 0 0 0-2.5 4.4A1 1 0 0 0 1 8.52l1.26.73a7.52 7.52 0 0 0 0 1.5L1 11.48a1 1 0 0 0-.5 1.07A10 10 0 0 0 3 17a1 1 0 0 0 1.15.15l1.26-.73a7.4 7.4 0 0 0 1.31.75v1.46a1 1 0 0 0 .7.92 9.94 9.94 0 0 0 5.08 0 1 1 0 0 0 .7-.92v-1.51a7.4 7.4 0 0 0 1.31-.75l1.26.73A1 1 0 0 0 17 17a10 10 0 0 0 2.54-4.4 1 1 0 0 0-.45-1.07l-1.26-.73a7.52 7.52 0 0 0-.04-1.55Zm-2.09 2.5 1.74 1a8 8 0 0 1-1.34 2.32l-1.74-1a6.69 6.69 0 0 1-3 1.75v2a8 8 0 0 1-2.68 0v-2a6.69 6.69 0 0 1-3-1.75l-1.74 1a8 8 0 0 1-1.34-2.32l1.74-1a6.88 6.88 0 0 1 0-3.49l-1.74-1a8.16 8.16 0 0 1 1.3-2.33l1.74 1a6.69 6.69 0 0 1 3-1.75v-2a8 8 0 0 1 2.68 0v2a6.69 6.69 0 0 1 3 1.75l1.74-1a8 8 0 0 1 1.34 2.32l-1.74 1a6.88 6.88 0 0 1 0 3.49ZM10 6.19A3.81 3.81 0 1 0 13.81 10 3.82 3.82 0 0 0 10 6.19Zm0 5.71a1.9 1.9 0 1 1 1.9-1.9 1.9 1.9 0 0 1-1.9 1.9Z"/></svg>