<svg xmlns="http://www.w3.org/2000/svg" viewBox="0 0 177.93 223.57"><path d="M25.22 223.56c-1.89-.49-3.82-.86-5.65-1.49C7.63 217.94.06 207.29.04 194.18q-.08-82.4.01-164.82C.05 15.14 8.88 4 22.34.79a29.5 29.5 0 0 1 6.69-.74C56.17 0 83.31.05 110.45 0a7.19 7.19 0 0 1 5.44 2.24q29.77 29.65 59.59 59.26a7.77 7.77 0 0 1 2.44 5.84v126.84c0 15.08-9.5 26.17-24.38 29a4 4 0 0 0-.79.35Zm80.84-212c-.71 0-1.14-.11-1.56-.11-25 0-49.91-.06-74.86.07a20 20 0 0 0-8.2 1.76c-6.78 3.21-9.8 9-9.8 16.38v163.47c0 11.8 7 18.92 18.81 18.92h117a22.64 22.64 0 0 0 5.82-.63c8.2-2.21 13-8.58 13-17.15V73.79c0-.69-.07-1.38-.1-2.16h-2.66c-13.89 0-27.79.07-41.68-.07a18.85 18.85 0 0 1-7.58-1.45c-5.83-2.7-8.18-7.77-8.19-14V14.42Zm12.18 9-.52.26v35.07c0 3.76.53 4.32 4.22 4.32h33.57c.61 0 1.22-.08 1.42-.09q-19.25-19.69-38.69-39.54Z"/><path d="m100.76 145.47 9.12-10.42c.57-.65 1.13-1.32 1.71-2 3.72-4.16 7.08-4 10.38.39q9.06 12.16 18.1 24.32c1 1.35 2 2.66 3 4a6.14 6.14 0 0 1 .47 6.78 6.26 6.26 0 0 1-5.9 3.42h-103a6.22 6.22 0 0 1-6-3.57 6.7 6.7 0 0 1 .86-7.37q6.54-8.87 13.12-17.7 11.7-15.76 23.39-31.53c3.65-4.92 7.58-4.85 11.14.19q11.13 15.78 22.23 31.55c.37.64.81 1.19 1.38 1.94Zm-4.56 14.81-24.72-35.24-26.14 35.24Zm30.77.14-10.49-14.44-8.83 9.94a32.14 32.14 0 0 0 1.78 2.83c.5.64 1.18 1.58 1.8 1.6 5.05.13 10.11.07 15.73.07ZM119.96 98.87a17.48 17.48 0 1 1-17.53-17.53 17.72 17.72 0 0 1 17.53 17.53Zm-11.6 0a5.81 5.81 0 0 0-5.93-5.91 5.93 5.93 0 1 0 0 11.86 5.83 5.83 0 0 0 5.91-5.94Z"/></svg>