<svg width="0" height="0"><symbol xmlns="http://www.w3.org/2000/svg" id="copy" viewBox="0 0 448 512"><path d="M384 352H224c-17.7 0-32-14.3-32-32V64c0-17.7 14.3-32 32-32h108.1c4.2 0 8.3 1.7 11.3 4.7l67.9 67.9c3 3 4.7 7.1 4.7 11.3V320c0 17.7-14.3 32-32 32zm49.9-270.1-67.8-67.8c-9-9-21.2-14.1-33.9-14.1H224c-35.3 0-64 28.7-64 64v256c0 35.3 28.7 64 64 64h160c35.3 0 64-28.7 64-64V115.9c0-12.7-5.1-24.9-14.1-33.9zM64 128c-35.3 0-64 28.7-64 64v256c0 35.3 28.7 64 64 64h160c35.3 0 64-28.7 64-64v-32h-32v32c0 17.7-14.3 32-32 32H64c-17.7 0-32-14.3-32-32V192c0-17.7 14.3-32 32-32h64v-32H64z"/></symbol><symbol xmlns="http://www.w3.org/2000/svg" id="trash" viewBox="0 0 448 512"><path d="M432 80h-82.4l-34-56.7A48 48 0 0 0 274.4 0H173.6a48 48 0 0 0-41.2 23.3L98.4 80H16A16 16 0 0 0 0 96v16a16 16 0 0 0 16 16h16l21.2 339a48 48 0 0 0 47.9 45h245.8a48 48 0 0 0 47.9-45L416 128h16a16 16 0 0 0 16-16V96a16 16 0 0 0-16-16zM173.6 48h100.8l19.2 32H154.4zm173.3 416H101.11l-21-336h287.8z"/></symbol></svg>