<svg width="0" height="0"><symbol xmlns="http://www.w3.org/2000/svg" id="angle-arrow" viewBox="0 0 320 512"><path d="M151.5 347.8 3.5 201c-4.7-4.7-4.7-12.3 0-17l19.8-19.8c4.7-4.7 12.3-4.7 17 0L160 282.7l119.7-118.5c4.7-4.7 12.3-4.7 17 0l19.8 19.8c4.7 4.7 4.7 12.3 0 17l-148 146.8c-4.7 4.7-12.3 4.7-17 0z"/></symbol><symbol xmlns="http://www.w3.org/2000/svg" id="arrow-alt" viewBox="0 0 448 512"><path d="M448 88v336c0 13.3-10.7 24-24 24h-24c-13.3 0-24-10.7-24-24V88c0-13.3 10.7-24 24-24h24c13.3 0 24 10.7 24 24zM24 320h136v87.7c0 17.8 21.5 26.7 34.1 14.1l152.2-152.2c7.5-7.5 7.5-19.8 0-27.3L194.1 90.1c-12.6-12.6-34.1-3.7-34.1 14.1V192H24c-13.3 0-24 10.7-24 24v80c0 13.3 10.7 24 24 24z"/></symbol><symbol xmlns="http://www.w3.org/2000/svg" id="check" viewBox="0 0 512 512"><path d="M480 128c0 8.188-3.125 16.38-9.375 22.62l-256 256C208.4 412.9 200.2 416 192 416s-16.38-3.125-22.62-9.375l-128-128C35.13 272.4 32 264.2 32 256c0-18.28 14.95-32 32-32 8.188 0 16.38 3.125 22.62 9.375L192 338.8l233.4-233.4c6.2-6.27 14.4-9.4 22.6-9.4 17.1 0 32 13.7 32 32z"/></symbol><symbol xmlns="http://www.w3.org/2000/svg" id="list-music" viewBox="0 0 512 512"><path d="m470.36 1.51-112 35.38A32 32 0 0 0 336 67.36v299.12c-18.16-9.07-40.16-14.48-64-14.48-61.86 0-112 35.82-112 80s50.14 80 112 80 112-35.82 112-80V195.36L489.64 162A32 32 0 0 0 512 131.48V32a32 32 0 0 0-41.64-30.49zM272 464c-39.7 0-64-20.72-64-32s24.3-32 64-32 64 20.72 64 32-24.3 32-64 32zm192-344.25L384 145V79.12l80-25.26zM16 104h256a16 16 0 0 0 16-16V72a16 16 0 0 0-16-16H16A16 16 0 0 0 0 72v16a16 16 0 0 0 16 16zm0 128h256a16 16 0 0 0 16-16v-16a16 16 0 0 0-16-16H16a16 16 0 0 0-16 16v16a16 16 0 0 0 16 16zm144 96a16 16 0 0 0-16-16H16a16 16 0 0 0-16 16v16a16 16 0 0 0 16 16h128a16 16 0 0 0 16-16z"/></symbol><symbol xmlns="http://www.w3.org/2000/svg" id="music" viewBox="0 0 512 512"><path d="M470.38 1.51 150.41 96A32 32 0 0 0 128 126.51v261.41A139 139 0 0 0 96 384c-53 0-96 28.66-96 64s43 64 96 64 96-28.66 96-64V214.32l256-75v184.61a138.4 138.4 0 0 0-32-3.93c-53 0-96 28.66-96 64s43 64 96 64 96-28.65 96-64V32a32 32 0 0 0-41.62-30.49z"/></symbol><symbol xmlns="http://www.w3.org/2000/svg" id="pause" viewBox="0 0 448 512"><path d="M144 479H48c-26.5 0-48-21.5-48-48V79c0-26.5 21.5-48 48-48h96c26.5 0 48 21.5 48 48v352c0 26.5-21.5 48-48 48zm304-48V79c0-26.5-21.5-48-48-48h-96c-26.5 0-48 21.5-48 48v352c0 26.5 21.5 48 48 48h96c26.5 0 48-21.5 48-48z"/></symbol><symbol xmlns="http://www.w3.org/2000/svg" id="play" viewBox="0 0 448 512"><path d="M424.4 214.7 72.4 6.6C43.8-10.3 0 6.1 0 47.9V464c0 37.5 40.7 60.1 72.4 41.3l352-208c31.4-18.5 31.5-64.1 0-82.6z"/></symbol><symbol xmlns="http://www.w3.org/2000/svg" id="random" viewBox="0 0 512 512"><path d="m505 400-79.2 72.9c-15.1 15.1-41.8 4.4-41.8-17v-40h-31c-3.3 0-6.5-1.4-8.8-3.9l-89.8-97.2 38.1-41.3 79.8 86.3H384v-48c0-21.4 26.7-32.1 41.8-17l79.2 71c9.3 9.6 9.3 24.8 0 34.2zM12 152h91.8l79.8 86.3 38.1-41.3-89.8-97.2c-2.3-2.5-5.5-3.9-8.8-3.9H12c-6.6 0-12 5.4-12 12v32c0 6.7 5.4 12.1 12 12.1zm493-41.9-79.2-71C410.7 24 384 34.7 384 56v40h-31c-3.3 0-6.5 1.4-8.8 3.9L103.8 360H12c-6.6 0-12 5.4-12 12v32c0 6.6 5.4 12 12 12h111c3.3 0 6.5-1.4 8.8-3.9L372.2 152H384v48c0 21.4 26.7 32.1 41.8 17l79.2-73c9.3-9.4 9.3-24.6 0-33.9z"/></symbol><symbol xmlns="http://www.w3.org/2000/svg" id="repeat" viewBox="0 0 512 512"><path d="M481.162 164.326c19.478 25.678 30.997 57.709 30.836 92.388C511.61 340.638 442.361 408 358.436 408H176v64c-.001 10.683-12.949 16.021-20.485 8.485l-88-87.995c-4.686-4.686-4.687-12.284 0-16.971l88-88.005c7.58-7.58 20.485-2.14 20.485 8.485v64h182.668C415.933 360 464.06 313.154 464 255.889c-.023-22.372-7.149-43.111-19.237-60.082-3.431-4.817-2.962-11.387 1.223-15.564 8.269-8.255 13.592-13.545 17.137-17.104 5.131-5.152 13.645-4.605 18.039 1.187zM48 256.111C47.94 198.846 96.067 152 153.332 152H336v64c0 10.625 12.905 16.066 20.485 8.485l88-88.005c4.687-4.686 4.686-12.285 0-16.971l-88-87.995C348.949 23.979 336.001 29.317 336 40v64H153.564C69.639 104 .389 171.362.002 255.286c-.16 34.679 11.358 66.71 30.836 92.388 4.394 5.792 12.908 6.339 18.039 1.188 3.545-3.559 8.867-8.849 17.137-17.105 4.185-4.178 4.653-10.748 1.223-15.564-12.088-16.971-19.213-37.71-19.237-60.082z"/></symbol><symbol xmlns="http://www.w3.org/2000/svg" id="search" viewBox="0 0 512 512"><path d="M508.5 468.9 387.1 347.5c-2.3-2.3-5.3-3.5-8.5-3.5h-13.2c31.5-36.5 50.6-84 50.6-136C416 93.1 322.9 0 208 0S0 93.1 0 208s93.1 208 208 208c52 0 99.5-19.1 136-50.6v13.2c0 3.2 1.3 6.2 3.5 8.5l121.4 121.4c4.7 4.7 12.3 4.7 17 0l22.6-22.6c4.7-4.7 4.7-12.3 0-17zM208 368c-88.4 0-160-71.6-160-160S119.6 48 208 48s160 71.6 160 160-71.6 160-160 160z"/></symbol><symbol xmlns="http://www.w3.org/2000/svg" id="settings" viewBox="0 0 20 20"><path d="m17.79 9.25 1.26-.73a1 1 0 0 0 .45-1.07 10 10 0 0 0-2.5-4.4 1 1 0 0 0-1.15-.15l-1.26.73a7.4 7.4 0 0 0-1.31-.75V1.42a1 1 0 0 0-.7-.92 9.94 9.94 0 0 0-5.12 0 1 1 0 0 0-.7.92v1.46a7.4 7.4 0 0 0-1.31.75L4.19 2.9A1 1 0 0 0 3 3.05a10 10 0 0 0-2.5 4.4A1 1 0 0 0 1 8.52l1.26.73a7.52 7.52 0 0 0 0 1.5L1 11.48a1 1 0 0 0-.5 1.07A10 10 0 0 0 3 17a1 1 0 0 0 1.15.15l1.26-.73a7.4 7.4 0 0 0 1.31.75v1.46a1 1 0 0 0 .7.92 9.94 9.94 0 0 0 5.08 0 1 1 0 0 0 .7-.92v-1.51a7.4 7.4 0 0 0 1.31-.75l1.26.73A1 1 0 0 0 17 17a10 10 0 0 0 2.54-4.4 1 1 0 0 0-.45-1.07l-1.26-.73a7.52 7.52 0 0 0-.04-1.55Zm-2.09 2.5 1.74 1a8 8 0 0 1-1.34 2.32l-1.74-1a6.69 6.69 0 0 1-3 1.75v2a8 8 0 0 1-2.68 0v-2a6.69 6.69 0 0 1-3-1.75l-1.74 1a8 8 0 0 1-1.34-2.32l1.74-1a6.88 6.88 0 0 1 0-3.49l-1.74-1a8.16 8.16 0 0 1 1.3-2.33l1.74 1a6.69 6.69 0 0 1 3-1.75v-2a8 8 0 0 1 2.68 0v2a6.69 6.69 0 0 1 3 1.75l1.74-1a8 8 0 0 1 1.34 2.32l-1.74 1a6.88 6.88 0 0 1 0 3.49ZM10 6.19A3.81 3.81 0 1 0 13.81 10 3.82 3.82 0 0 0 10 6.19Zm0 5.71a1.9 1.9 0 1 1 1.9-1.9 1.9 1.9 0 0 1-1.9 1.9Z"/></symbol><symbol xmlns="http://www.w3.org/2000/svg" id="share" viewBox="0 0 20 20"><path d="M15.58 11.4a4 4 0 0 0-3.14 1.44l-3.93-2a4.35 4.35 0 0 0 0-1.76l3.93-2a4.08 4.08 0 1 0-.95-1.87l-3.93 2a4 4 0 0 0-3.14-1.4 4.19 4.19 0 0 0 0 8.38 4 4 0 0 0 3.14-1.45l3.93 2a4.19 4.19 0 1 0 4.09-3.31Zm0-9.08a2.1 2.1 0 1 1-2.09 2.1 2.1 2.1 0 0 1 2.09-2.1ZM4.42 12.09A2.09 2.09 0 1 1 6.51 10a2.09 2.09 0 0 1-2.09 2.09Zm11.16 5.59a2.1 2.1 0 1 1 2.1-2.1 2.1 2.1 0 0 1-2.1 2.1Z"/></symbol></svg>