<svg width="0" height="0"><symbol xmlns="http://www.w3.org/2000/svg" id="angle-arrow" viewBox="0 0 320 512"><path d="M151.5 347.8 3.5 201c-4.7-4.7-4.7-12.3 0-17l19.8-19.8c4.7-4.7 12.3-4.7 17 0L160 282.7l119.7-118.5c4.7-4.7 12.3-4.7 17 0l19.8 19.8c4.7 4.7 4.7 12.3 0 17l-148 146.8c-4.7 4.7-12.3 4.7-17 0z"/></symbol><symbol xmlns="http://www.w3.org/2000/svg" id="list-music" viewBox="0 0 512 512"><path d="m470.36 1.51-112 35.38A32 32 0 0 0 336 67.36v299.12c-18.16-9.07-40.16-14.48-64-14.48-61.86 0-112 35.82-112 80s50.14 80 112 80 112-35.82 112-80V195.36L489.64 162A32 32 0 0 0 512 131.48V32a32 32 0 0 0-41.64-30.49zM272 464c-39.7 0-64-20.72-64-32s24.3-32 64-32 64 20.72 64 32-24.3 32-64 32zm192-344.25L384 145V79.12l80-25.26zM16 104h256a16 16 0 0 0 16-16V72a16 16 0 0 0-16-16H16A16 16 0 0 0 0 72v16a16 16 0 0 0 16 16zm0 128h256a16 16 0 0 0 16-16v-16a16 16 0 0 0-16-16H16a16 16 0 0 0-16 16v16a16 16 0 0 0 16 16zm144 96a16 16 0 0 0-16-16H16a16 16 0 0 0-16 16v16a16 16 0 0 0 16 16h128a16 16 0 0 0 16-16z"/></symbol><symbol xmlns="http://www.w3.org/2000/svg" id="search" viewBox="0 0 512 512"><path d="M508.5 468.9 387.1 347.5c-2.3-2.3-5.3-3.5-8.5-3.5h-13.2c31.5-36.5 50.6-84 50.6-136C416 93.1 322.9 0 208 0S0 93.1 0 208s93.1 208 208 208c52 0 99.5-19.1 136-50.6v13.2c0 3.2 1.3 6.2 3.5 8.5l121.4 121.4c4.7 4.7 12.3 4.7 17 0l22.6-22.6c4.7-4.7 4.7-12.3 0-17zM208 368c-88.4 0-160-71.6-160-160S119.6 48 208 48s160 71.6 160 160-71.6 160-160 160z"/></symbol><symbol xmlns="http://www.w3.org/2000/svg" id="settings" viewBox="0 0 20 20"><path d="m17.79 9.25 1.26-.73a1 1 0 0 0 .45-1.07 10 10 0 0 0-2.5-4.4 1 1 0 0 0-1.15-.15l-1.26.73a7.4 7.4 0 0 0-1.31-.75V1.42a1 1 0 0 0-.7-.92 9.94 9.94 0 0 0-5.12 0 1 1 0 0 0-.7.92v1.46a7.4 7.4 0 0 0-1.31.75L4.19 2.9A1 1 0 0 0 3 3.05a10 10 0 0 0-2.5 4.4A1 1 0 0 0 1 8.52l1.26.73a7.52 7.52 0 0 0 0 1.5L1 11.48a1 1 0 0 0-.5 1.07A10 10 0 0 0 3 17a1 1 0 0 0 1.15.15l1.26-.73a7.4 7.4 0 0 0 1.31.75v1.46a1 1 0 0 0 .7.92 9.94 9.94 0 0 0 5.08 0 1 1 0 0 0 .7-.92v-1.51a7.4 7.4 0 0 0 1.31-.75l1.26.73A1 1 0 0 0 17 17a10 10 0 0 0 2.54-4.4 1 1 0 0 0-.45-1.07l-1.26-.73a7.52 7.52 0 0 0-.04-1.55Zm-2.09 2.5 1.74 1a8 8 0 0 1-1.34 2.32l-1.74-1a6.69 6.69 0 0 1-3 1.75v2a8 8 0 0 1-2.68 0v-2a6.69 6.69 0 0 1-3-1.75l-1.74 1a8 8 0 0 1-1.34-2.32l1.74-1a6.88 6.88 0 0 1 0-3.49l-1.74-1a8.16 8.16 0 0 1 1.3-2.33l1.74 1a6.69 6.69 0 0 1 3-1.75v-2a8 8 0 0 1 2.68 0v2a6.69 6.69 0 0 1 3 1.75l1.74-1a8 8 0 0 1 1.34 2.32l-1.74 1a6.88 6.88 0 0 1 0 3.49ZM10 6.19A3.81 3.81 0 1 0 13.81 10 3.82 3.82 0 0 0 10 6.19Zm0 5.71a1.9 1.9 0 1 1 1.9-1.9 1.9 1.9 0 0 1-1.9 1.9Z"/></symbol></svg>