<svg width="0" height="0"><symbol xmlns="http://www.w3.org/2000/svg" id="eye" viewBox="0 0 576 512"><path d="M288 144a110.94 110.94 0 0 0-31.24 5 55.4 55.4 0 0 1 7.24 27 56 56 0 0 1-56 56 55.4 55.4 0 0 1-27-7.24A111.71 111.71 0 1 0 288 144zm284.52 97.4C518.29 135.59 410.93 64 288 64S57.68 135.64 3.48 241.41a32.35 32.35 0 0 0 0 29.19C57.71 376.41 165.07 448 288 448s230.32-71.64 284.52-177.41a32.35 32.35 0 0 0 0-29.19zM288 400c-98.65 0-189.09-55-237.93-144C98.91 167 189.34 112 288 112s189.09 55 237.93 144C477.1 345 386.66 400 288 400z"/></symbol><symbol xmlns="http://www.w3.org/2000/svg" id="file-mp3" viewBox="0 0 512 512"><path d="M32 448c0 17.7 14.3 32 32 32v32c-35.3 0-64-28.7-64-64V64C0 28.7 28.7 0 64 0h156.1C232.8 0 245 5.1 254 14.1l115.9 115.8c9 9 14.1 21.2 14.1 33.9V288h-32v-96H240c-26.5 0-48-21.5-48-48V32H64c-17.7 0-32 14.3-32 32v384zm319.5-288c-.7-2.8-2.1-5.4-4.2-7.4L231.4 36.7c-2.1-2.1-4.6-3.5-7.4-4.2V144c0 8.8 7.2 16 16 16h111.5zM139.7 352.6c6.9-1.9 14.3 1 18 7.2l34.3 57.1 34.3-57.1c3.7-6.2 11.1-9.1 18-7.2S256 360.8 256 368v128c0 8.8-7.2 16-16 16s-16-7.2-16-16v-70.2l-18.3 30.5c-2.9 4.8-8.1 7.8-13.7 7.8s-10.8-3-13.7-7.8L160 425.8V496c0 8.8-7.2 16-16 16s-16-7.2-16-16V368c0-7.2 4.8-13.5 11.7-15.4zM288 368c0-8.8 7.2-16 16-16h32c30.9 0 56 25.1 56 56s-25.1 56-56 56h-16v32c0 8.8-7.2 16-16 16s-16-7.2-16-16V368zm32 64h16c13.3 0 24-10.7 24-24s-10.7-24-24-24h-16v48zm144 80h-32c-8.8 0-16-7.2-16-16s7.2-16 16-16h32c8.8 0 16-7.2 16-16s-7.2-16-16-16h-24c-8.8 0-16-7.2-16-16 0-.6 0-1.1.1-1.6.8-8.1 7.6-14.4 15.9-14.4h24c8.8 0 16-7.2 16-16s-7.2-16-16-16h-32c-8.8 0-16-7.2-16-16s7.2-16 16-16h32c26.5 0 48 21.5 48 48 0 12.3-4.6 23.5-12.2 32 7.6 8.5 12.2 19.7 12.2 32 0 26.5-21.5 48-48 48z"/></symbol></svg>